<svg xmlns="http://www.w3.org/2000/svg" viewBox="0 0 16 16">
  <path d="M8 16c4.418 0 8-3.582 8-8s-3.582-8-8-8-8 3.582-8 8 3.582 8 8 8zM8 1.5c3.59 0 6.5 2.91 6.5 6.5s-2.91 6.5-6.5 6.5S1.5 11.59 1.5 8 4.41 1.5 8 1.5zM4 5c0-.552.448-1 1-1s1 .448 1 1-.448 1-1 1-1-.448-1-1zm6 0c0-.552.448-1 1-1s1 .448 1 1-.448 1-1 1-1-.448-1-1z"/>
  <path d="M10.561 8.439c-.586-.586-1.536-.586-2.121 0s-.586 1.536 0 2.121c.019.019.038.037.058.055 1.352 1.227 4.503-.029 4.503-1.615-.969.625-1.726.153-2.439-.561zm-5.122 0c.586-.586 1.536-.586 2.121 0s.586 1.536 0 2.121c-.019.019-.038.037-.058.055C6.15 11.842 2.999 10.586 2.999 9c.969.625 1.726.153 2.439-.561z"/>
</svg>
